<svg width="57" height="52" viewBox="0 0 57 52" fill="none" xmlns="http://www.w3.org/2000/svg">
<path d="M9.38859 37.2496L9.38862 37.2419V37.2342V14.6215C9.39399 11.9241 10.4679 9.3387 12.3753 7.4313C14.2826 5.52394 16.868 4.45005 19.5653 4.44462H42.1741C44.8714 4.45005 47.4567 5.52394 49.3641 7.4313C51.2713 9.33848 52.3452 11.9235 52.3508 14.6206V37.2309C52.3452 39.9191 51.2784 42.4964 49.3824 44.4021C47.4885 46.3056 44.9204 47.3851 42.2357 47.4068H19.6352H19.6101L19.5849 47.4071C17.7925 47.4273 16.0287 46.957 14.4845 46.0469L12.6127 44.9439L10.5925 45.7433C10.2735 45.8695 9.95217 45.9887 9.62866 46.1008C9.74367 45.9255 9.85693 45.749 9.96842 45.5713L11.2268 43.5652L10.2636 41.4018C9.68189 40.0951 9.38366 38.6799 9.38859 37.2496Z" stroke="#A8221A" stroke-width="8.88924"/>
</svg>
